<svg width="153" height="121" viewBox="0 0 153 121" fill="none" xmlns="http://www.w3.org/2000/svg">
<g clip-path="url(#clip0)">
<rect x="24" y="9" width="120" height="105" fill="black"/>
<path d="M78.288 15.784V25.256H39.504V55.336H70.992V64.808H39.504V105H27.856V15.784H78.288ZM137.284 15.784V81.704C137.284 89.0427 135.023 94.9307 130.5 99.368C125.977 103.72 120.004 105.896 112.58 105.896C105.071 105.896 99.0547 103.677 94.532 99.24C90.0093 94.7173 87.748 88.5733 87.748 80.808H99.396C99.4813 85.16 100.591 88.7013 102.724 91.432C104.943 94.1627 108.228 95.528 112.58 95.528C116.932 95.528 120.175 94.248 122.308 91.688C124.441 89.0427 125.508 85.7147 125.508 81.704V15.784H137.284Z" fill="white"/>
</g>
<defs>
<clipPath id="clip0">
<rect width="153" height="121" fill="white"/>
</clipPath>
</defs>
</svg>
